<svg width="33" height="31" viewBox="0 0 33 31" fill="none" xmlns="http://www.w3.org/2000/svg">
<path d="M16.247 28.5719C17.3321 28.5719 18.2117 27.7098 18.2117 26.6463C18.2117 25.5828 17.3321 24.7206 16.247 24.7206C15.1619 24.7206 14.2822 25.5828 14.2822 26.6463C14.2822 27.7098 15.1619 28.5719 16.247 28.5719Z" fill="#4BFFAF"/>
<path d="M14.1528 7.81456C19.9597 7.21036 25.6523 9.17714 29.767 13.2101C30.8018 14.2243 31.7026 15.3367 32.4636 16.5246V5.38065C32.4636 2.40878 30.0059 0 26.9737 0H5.48984C2.45767 0 0 2.40878 0 5.38065V16.5234C3.04615 11.7721 8.20504 8.43246 14.1528 7.81456Z" fill="#4BFFAF"/>
<path d="M30.0187 30.1321C30.4464 28.5879 30.6107 26.9672 30.4779 25.3316C29.9278 18.5633 24.3051 13.0524 17.3994 12.5133C17.016 12.4836 16.6327 12.4688 16.2516 12.4688C12.4631 12.4688 8.82616 13.933 6.1296 16.5759C3.16152 19.485 1.65126 23.511 1.98571 27.6216C2.05563 28.4817 2.21062 29.3211 2.43669 30.1332H11.3281C10.6009 29.1532 10.1663 27.9517 10.1663 26.6474C10.1663 23.3637 12.8826 20.7014 16.233 20.7014C19.5833 20.7014 22.2996 23.3637 22.2996 26.6474C22.2996 27.9517 21.865 29.1532 21.1378 30.1332H30.0187V30.1321Z" fill="#4BFFAF"/>
</svg>
